<svg width="150" height="150" viewBox="0 0 150 150" fill="none" xmlns="http://www.w3.org/2000/svg">
<path d="M1.515 73.5C2.31376 33.5995 34.9083 1.5 75 1.5C115.092 1.5 147.686 33.5995 148.485 73.5H148.405H148.181H147.959H147.737H147.516H147.296H147.078H146.86H146.643H146.427H146.212H145.998H145.785H145.573H145.362H145.152H144.943H144.735H144.528H144.322H144.116H143.912H143.708H143.506H143.304H143.103H142.904H142.705H142.507H142.309H142.113H141.918H141.723H141.53H141.337H141.145H140.954H140.764H140.575H140.386H140.199H140.012H139.826H139.641H139.457H139.273H139.091H138.909H138.728H138.548H138.368H138.19H138.012H137.835H137.659H137.484H137.309H137.135H136.962H136.79H136.619H136.448H136.278H136.109H135.94H135.773H135.606H135.439H135.274H135.109H134.945H134.782H134.619H134.457H134.296H134.136H133.976H133.817H133.658H133.501H133.344H133.187H133.032H132.877H132.722H132.568H132.415H132.263H132.111H131.96H131.81H131.66H131.511H131.362H131.214H131.067H130.921H130.774H130.629H130.484H130.34H130.196H130.053H129.911H129.769H129.628H129.487H129.347H129.207H129.068H128.93H128.792H128.654H128.517H128.381H128.245H128.11H127.976H127.841H127.708H127.575H127.442H127.31H127.178H127.047H126.917H126.787H126.657H126.528H126.399H126.271H126.143H126.016H125.889H125.763H125.637H125.512H125.387H125.262H125.138H125.015H124.891H124.769H124.646H124.524H124.403H124.282H124.161H124.041H123.921H123.801H123.682H123.563H123.445H123.327H123.209H123.092H122.975H122.859H122.742H122.627H122.511H122.396H122.281H122.167H122.052H121.939H121.825H121.712H121.599H121.487H121.374H121.262H121.151H121.039H120.928H120.818H120.707H120.597H120.487H120.377H120.268H120.159H120.05H119.941H119.833H119.725H119.617H119.509H119.402H119.294H119.187H119.081H118.974H118.868H118.762H118.656H118.55H118.444H118.339H118.234H118.129H118.024H117.919H117.815H117.71H117.606H117.502H117.398H117.295H117.191H117.088H116.984H116.881H116.778H116.675H116.573H116.47H116.367H116.265H116.163H116.06H115.958H115.856H115.754H115.652H115.55H115.449H115.347H115.245H115.144H115.042H114.941H114.84H114.738H114.637H114.536H114.434H114.333H114.232H114.131H114.03H113.929H113.827H113.726H113.625H113.524H113.423H113.322H113.221H113.119H113.018H112.917H112.816H112.714H112.613H112.511H112.41H112.308H112.207H112.105H112.003H111.902H111.8H111.698H111.596H111.494H111.392H111.289H111.187H111.084H110.982H110.879H110.776H110.673H110.57H110.467H110.363H110.26H110.156H110.052H109.949H109.844H109.74H109.636H109.531H109.426H109.322H109.216H109.111H109.006H108.9H108.794H108.688H108.582H108.475H108.369H108.262H108.155H108.047H107.94H107.832H107.724H107.615H107.507H107.398H107.289H107.18H107.07H106.96H106.85H106.74H106.629H106.518H106.407H106.295H106.184H106.071H105.959H105.846H105.733H105.62H105.506H105.392H105.278H105.163H105.048H104.933H104.817H104.701H104.585H104.468H104.351H104.233H104.116H103.997H103.879H103.76H103.64H103.521H103.4H103.28H103.159H103.038H102.916H102.794H102.671H102.548H102.424H102.3H102.176H102.051H101.926H101.8H101.674H101.548H101.421H101.293H101.165H101.037H100.908H100.778H100.648H100.518H100.387H100.256H100.124H99.9915H99.8586H99.7252H99.5912H99.4567H99.3217H99.1862H99.0502H98.9135H98.7764H98.6387H98.5004H98.3616H98.2223H98.0823H97.9418H97.8008H97.6591H97.5169H97.374H97.2306H97.0866H96.942H96.7968H96.651H96.5045H96.3575H96.2098H96.0616H95.9127H95.7631H95.6129H95.4621H95.3106H95.1585H95.0058H94.8524H94.6983H94.5435H94.3881H94.232H94.0753H93.9178H93.7597H93.6009H93.4414H93.2811H93.1202H92.9586H92.7963H92.6332H92.4695H92.305H92.1398H91.9738H91.8071H91.6397H91.4716H91.3026H91.133H90.9626H90.7914H90.6194H90.4467H90.2732H90.099H89.9239H89.7481H89.5715H89.3941H89.2159H89.0369H88.8571H88.6764H88.495H88.3127H88.1297H87.9458H87.761H87.5755H87.389H87.2018H87.0137H86.8247H86.6349H86.4443H86.2527H86.0603H85.8671H85.6729H85.4779H85.282H85.0852H84.8875H84.6889H84.4894H84.289H84.0877H83.8855H83.6824H83.4783H83.2733H83.0674H82.8605H82.6528H82.444H82.2344H82.0237H81.8121H81.5996H81.3861H81.1716H80.9562H80.7398H80.5224H80.304H80.0846H79.8642H79.6429H79.4205H79.1972H78.9728H78.7474H78.521H78.2935H78.0651H77.8356H77.6051H77.3735H77.1409H76.9073H76.6726H76.4369H76.2001H75.9622H75.7233H75.4832H75.2422H75H74.758H74.5174H74.2782H74.0404H73.8039H73.5688H73.3351H73.1028H72.8718H72.6422H72.4139H72.1869H71.9613H71.737H71.514H71.2924H71.072H70.8529H70.6352H70.4187H70.2035H69.9896H69.777H69.5656H69.3555H69.1466H68.939H68.7326H68.5275H68.3236H68.1209H67.9195H67.7192H67.5201H67.3223H67.1256H66.9302H66.7359H66.5428H66.3508H66.16H65.9704H65.782H65.5946H65.4084H65.2234H65.0394H64.8566H64.6749H64.4944H64.3149H64.1365H63.9592H63.783H63.6079H63.4338H63.2608H63.0889H62.918H62.7482H62.5794H62.4116H62.2449H62.0792H61.9145H61.7509H61.5882H61.4266H61.2659H61.1062H60.9475H60.7898H60.6331H60.4773H60.3225H60.1686H60.0157H59.8637H59.7127H59.5625H59.4133H59.265H59.1177H58.9712H58.8256H58.681H58.5372H58.3942H58.2522H58.111H57.9707H57.8313H57.6927H57.5549H57.418H57.2819H57.1466H57.0122H56.8785H56.7457H56.6137H56.4825H56.352H56.2224H56.0935H55.9654H55.8381H55.7115H55.5856H55.4606H55.3362H55.2126H55.0897H54.9676H54.8462H54.7254H54.6054H54.4861H54.3675H54.2495H54.1323H54.0157H53.8998H53.7845H53.6699H53.556H53.4427H53.3301H53.218H53.1066H52.9959H52.8857H52.7761H52.6672H52.5588H52.4511H52.3439H52.2373H52.1313H52.0258H51.9209H51.8166H51.7128H51.6095H51.5068H51.4046H51.3029H51.2018H51.1012H51.001H50.9014H50.8023H50.7036H50.6055H50.5078H50.4106H50.3138H50.2175H50.1217H50.0263H49.9314H49.8368H49.7427H49.6491H49.5558H49.463H49.3705H49.2785H49.1868H49.0956H49.0047H48.9142H48.8241H48.7343H48.6448H48.5558H48.467H48.3786H48.2906H48.2029H48.1154H48.0283H47.9415H47.855H47.7688H47.6829H47.5973H47.512H47.4269H47.3421H47.2575H47.1732H47.0892H47.0054H46.9218H46.8385H46.7553H46.6724H46.5897H46.5072H46.425H46.3429H46.261H46.1792H46.0977H46.0163H45.9351H45.854H45.7731H45.6923H45.6117H45.5312H45.4508H45.3706H45.2905H45.2104H45.1305H45.0507H44.971H44.8913H44.8117H44.7322H44.6528H44.5734H44.4941H44.4148H44.3356H44.2564H44.1773H44.0981H44.019H43.9399H43.8608H43.7817H43.7026H43.6235H43.5444H43.4652H43.386H43.3068H43.2276H43.1482H43.0689H42.9895H42.91H42.8304H42.7508H42.671H42.5912H42.5113H42.4313H42.3512H42.2709H42.1906H42.1101H42.0295H41.9487H41.8678H41.7868H41.7056H41.6242H41.5427H41.461H41.3791H41.297H41.2148H41.1323H41.0496H40.9667H40.8836H40.8003H40.7168H40.633H40.549H40.4647H40.3802H40.2954H40.2104H40.125H40.0394H39.9536H39.8674H39.7809H39.6942H39.6071H39.5197H39.432H39.344H39.2556H39.167H39.0779H38.9885H38.8988H38.8087H38.7182H38.6274H38.5362H38.4446H38.3526H38.2602H38.1674H38.0742H37.9805H37.8865H37.792H37.6971H37.6018H37.506H37.4097H37.313H37.2159H37.1182H37.0201H36.9216H36.8225H36.7229H36.6228H36.5223H36.4212H36.3196H36.2174H36.1148H36.0116H35.9078H35.8036H35.6987H35.5933H35.4874H35.3808H35.2737H35.166H35.0577H34.9488H34.8393H34.7293H34.6185H34.5072H34.3953H34.2827H34.1694H34.0556H33.9411H33.8259H33.71H33.5935H33.4764H33.3585H33.2399H33.1207H33.0008H32.8801H32.7588H32.6367H32.5139H32.3904H32.2661H32.1411H32.0154H31.8889H31.7616H31.6336H31.5048H31.3752H31.2449H31.1137H30.9818H30.8491H30.7155H30.5812H30.446H30.31H30.1732H30.0355H29.897H29.7576H29.6174H29.4763H29.3344H29.1916H29.0479H28.9033H28.7578H28.6115H28.4642H28.316H28.1669H28.0169H27.8659H27.7141H27.5612H27.4075H27.2528H27.0971H26.9404H26.7828H26.6243H26.4647H26.3041H26.1426H25.98H25.8165H25.6519H25.4863H25.3197H25.1521H24.9834H24.8137H24.643H24.4711H24.2983H24.1243H23.9493H23.7732H23.5961H23.4178H23.2384H23.058H22.8764H22.6937H22.5099H22.325H22.1389H21.9517H21.7634H21.5739H21.3832H21.1914H20.9984H20.8043H20.6089H20.4124H20.2147H20.0158H19.8156H19.6143H19.4118H19.208H19.003H18.7967H18.5893H18.3806H18.1706H17.9593H17.7468H17.5331H17.318H17.1017H16.8841H16.6652H16.445H16.2234H16.0006H15.7765H15.551H15.3242H15.096H14.8665H14.6357H14.4035H14.17H13.935H13.6987H13.4611H13.222H12.9816H12.7397H12.4965H12.2518H12.0057H11.7582H11.5093H11.2589H11.0071H10.7539H10.4992H10.2431H9.98543H9.72635H9.46579H9.20374H8.94021H8.67519H8.40867H8.14064H7.87109H7.60004H7.32745H7.05334H6.77769H6.5005H6.22176H5.94147H5.65961H5.3762H5.09121H4.80464H4.51648H4.22674H3.9354H3.64246H3.34791H3.05175H2.75396H2.45455H2.15351H1.85083H1.5465H1.515Z" fill="#FF6262" stroke="black" stroke-width="3"/>
<path d="M148.485 76.5C147.686 116.4 115.092 148.5 75 148.5C34.9083 148.5 2.31375 116.4 1.515 76.5H1.59488H1.81865H2.04141H2.26317H2.48392H2.70369H2.92245H3.14024H3.35706H3.57289H3.78773H4.00163H4.21455H4.42651H4.63751H4.84756H5.05667H5.26483H5.47205H5.67833H5.88368H6.08812H6.29161H6.4942H6.69586H6.89662H7.09647H7.29541H7.49345H7.69061H7.88687H8.08224H8.27673H8.47035H8.6631H8.85497H9.04597H9.23613H9.42542H9.61385H9.80144H9.98817H10.1741H10.3591H10.5434H10.7268H10.9094H11.0911H11.2721H11.4522H11.6315H11.8101H11.9878H12.1647H12.3408H12.5162H12.6908H12.8645H13.0376H13.2098H13.3813H13.552H13.722H13.8912H14.0596H14.2274H14.3943H14.5606H14.7261H14.8908H15.0549H15.2182H15.3808H15.5427H15.7039H15.8644H16.0242H16.1833H16.3417H16.4994H16.6564H16.8128H16.9685H17.1235H17.2778H17.4315H17.5845H17.7369H17.8886H18.0397H18.1901H18.3399H18.4891H18.6376H18.7855H18.9328H19.0795H19.2255H19.371H19.5158H19.6601H19.8037H19.9468H20.0892H20.2311H20.3724H20.5132H20.6533H20.7929H20.9319H21.0704H21.2083H21.3457H21.4825H21.6188H21.7545H21.8898H22.0244H22.1586H22.2922H22.4253H22.5579H22.69H22.8216H22.9527H23.0833H23.2134H23.343H23.4721H23.6008H23.7289H23.8566H23.9839H24.1106H24.237H24.3628H24.4882H24.6132H24.7377H24.8618H24.9854H25.1086H25.2314H25.3538H25.4757H25.5973H25.7184H25.8391H25.9594H26.0793H26.1989H26.318H26.4368H26.5551H26.6731H26.7908H26.908H27.0249H27.1415H27.2577H27.3735H27.489H27.6041H27.7189H27.8334H27.9475H28.0613H28.1748H28.288H28.4008H28.5134H28.6256H28.7376H28.8492H28.9605H29.0716H29.1824H29.2929H29.4031H29.513H29.6227H29.7321H29.8413H29.9502H30.0588H30.1672H30.2754H30.3833H30.491H30.5984H30.7056H30.8126H30.9194H31.026H31.1323H31.2385H31.3444H31.4502H31.5557H31.6611H31.7663H31.8713H31.9761H32.0808H32.1852H32.2896H32.3937H32.4977H32.6016H32.7053H32.8088H32.9122H33.0155H33.1187H33.2217H33.3246H33.4274H33.53H33.6326H33.735H33.8374H33.9396H34.0418H34.1439H34.2458H34.3477H34.4495H34.5513H34.653H34.7546H34.8561H34.9576H35.0591H35.1604H35.2618H35.3631H35.4644H35.5656H35.6668H35.768H35.8692H35.9703H36.0715H36.1726H36.2737H36.3749H36.476H36.5771H36.6783H36.7795H36.8807H36.9819H37.0832H37.1845H37.2858H37.3872H37.4886H37.5901H37.6916H37.7932H37.8948H37.9965H38.0983H38.2002H38.3021H38.4042H38.5063H38.6085H38.7108H38.8132H38.9157H39.0183H39.1211H39.2239H39.3269H39.43H39.5332H39.6366H39.7401H39.8437H39.9475H40.0515H40.1556H40.2598H40.3642H40.4688H40.5736H40.6785H40.7836H40.8889H40.9944H41.1H41.2059H41.312H41.4183H41.5247H41.6314H41.7383H41.8455H41.9528H42.0604H42.1683H42.2763H42.3846H42.4932H42.602H42.711H42.8203H42.9299H43.0397H43.1498H43.2602H43.3709H43.4818H43.5931H43.7046H43.8164H43.9285H44.041H44.1537H44.2667H44.3801H44.4938H44.6078H44.7221H44.8368H44.9518H45.0671H45.1828H45.2989H45.4153H45.532H45.6491H45.7666H45.8845H46.0027H46.1213H46.2403H46.3597H46.4794H46.5996H46.7202H46.8411H46.9625H47.0843H47.2065H47.3291H47.4521H47.5756H47.6995H47.8239H47.9486H48.0739H48.1995H48.3257H48.4523H48.5793H48.7068H48.8348H48.9633H49.0922H49.2216H49.3515H49.4819H49.6128H49.7442H49.8761H50.0085H50.1414H50.2748H50.4088H50.5433H50.6783H50.8138H50.9498H51.0865H51.2236H51.3613H51.4996H51.6384H51.7777H51.9177H52.0582H52.1992H52.3409H52.4831H52.626H52.7694H52.9134H53.058H53.2032H53.349H53.4955H53.6425H53.7902H53.9384H54.0873H54.2369H54.3871H54.5379H54.6894H54.8415H54.9942H55.1476H55.3017H55.4565H55.6119H55.768H55.9247H56.0822H56.2403H56.3991H56.5586H56.7189H56.8798H57.0414H57.2037H57.3668H57.5305H57.695H57.8602H58.0262H58.1929H58.3603H58.5284H58.6974H58.867H59.0374H59.2086H59.3806H59.5533H59.7268H59.901H60.0761H60.2519H60.4285H60.6059H60.7841H60.9631H61.1429H61.3236H61.505H61.6873H61.8703H62.0542H62.239H62.4245H62.611H62.7982H62.9863H63.1753H63.3651H63.5557H63.7473H63.9397H64.1329H64.3271H64.5221H64.718H64.9148H65.1125H65.3111H65.5106H65.711H65.9123H66.1145H66.3176H66.5217H66.7267H66.9326H67.1395H67.3472H67.556H67.7656H67.9763H68.1879H68.4004H68.6139H68.8284H69.0438H69.2602H69.4776H69.696H69.9154H70.1358H70.3571H70.5795H70.8028H71.0272H71.2526H71.479H71.7065H71.9349H72.1644H72.3949H72.6265H72.8591H73.0927H73.3274H73.5631H73.7999H74.0378H74.2767H74.5168H74.7578H75H75.242H75.4826H75.7218H75.9596H76.1961H76.4312H76.6649H76.8972H77.1282H77.3578H77.5861H77.8131H78.0387H78.263H78.486H78.7076H78.928H79.1471H79.3648H79.5813H79.7965H80.0104H80.223H80.4344H80.6445H80.8534H81.061H81.2674H81.4725H81.6764H81.8791H82.0805H82.2808H82.4799H82.6777H82.8744H83.0698H83.2641H83.4572H83.6492H83.84H84.0296H84.218H84.4054H84.5916H84.7766H84.9606H85.1434H85.3251H85.5056H85.6851H85.8635H86.0408H86.217H86.3921H86.5662H86.7392H86.9111H87.082H87.2518H87.4206H87.5884H87.7551H87.9208H88.0855H88.2491H88.4118H88.5734H88.7341H88.8938H89.0525H89.2102H89.3669H89.5227H89.6775L89.8314 76.5H89.9843H90.1363H90.2873H90.4375H90.5867H90.735H90.8823H91.0288H91.1744H91.319H91.4628H91.6058H91.7478H91.889H92.0293H92.1687H92.3073H92.4451H92.582H92.7181H92.8534H92.9878H93.1215H93.2543H93.3863H93.5175H93.648H93.7776H93.9065H94.0346H94.1619H94.2885H94.4144H94.5394H94.6638H94.7874H94.9103H95.0324H95.1538H95.2746H95.3946H95.5139H95.6325H95.7505H95.8677H95.9843H96.1002H96.2155H96.3301H96.444H96.5573H96.6699H96.782H96.8934H97.0041H97.1143H97.2239H97.3328H97.4412H97.5489H97.6561H97.7627H97.8687H97.9742H98.0791H98.1834H98.2872H98.3905H98.4932H98.5954H98.6971H98.7982H98.8988H98.999H99.0986H99.1977H99.2964H99.3945H99.4922H99.5894H99.6862H99.7825H99.8783H99.9737H100.069H100.163H100.257H100.351H100.444H100.537H100.629H100.722H100.813H100.904H100.995H101.086H101.176H101.266H101.355H101.444H101.533H101.621H101.709H101.797H101.885H101.972H102.058H102.145H102.231H102.317H102.403H102.488H102.573H102.658H102.742H102.827H102.911H102.995H103.078H103.162H103.245H103.328H103.41H103.493H103.575H103.657H103.739H103.821H103.902H103.984H104.065H104.146H104.227H104.308H104.388H104.469H104.549H104.629H104.71H104.79H104.869H104.949H105.029H105.109H105.188H105.268H105.347H105.427H105.506H105.585H105.664H105.744H105.823H105.902H105.981H106.06H106.139H106.218H106.297H106.376H106.456H106.535H106.614H106.693H106.772H106.852H106.931H107.011H107.09H107.17H107.249H107.329H107.409H107.489H107.569H107.649H107.729H107.809H107.89H107.971H108.051H108.132H108.213H108.294H108.376H108.457H108.539H108.621H108.703H108.785H108.868H108.95H109.033H109.116H109.2H109.283H109.367H109.451H109.535H109.62H109.705H109.79H109.875H109.961H110.046H110.133H110.219H110.306H110.393H110.48H110.568H110.656H110.744H110.833H110.922H111.011H111.101H111.191H111.282H111.373H111.464H111.555H111.647H111.74H111.833H111.926H112.019H112.114H112.208H112.303H112.398H112.494H112.59H112.687H112.784H112.882H112.98H113.078H113.178H113.277H113.377H113.478H113.579H113.68H113.783H113.885H113.988H114.092H114.196H114.301H114.407H114.513H114.619H114.726H114.834H114.942H115.051H115.161H115.271H115.381H115.493H115.605H115.717H115.831H115.944H116.059H116.174H116.29H116.406H116.524H116.642H116.76H116.879H116.999H117.12H117.241H117.363H117.486H117.61H117.734H117.859H117.985H118.111H118.238H118.366H118.495H118.625H118.755H118.886H119.018H119.151H119.284H119.419H119.554H119.69H119.827H119.964H120.103H120.242H120.383H120.524H120.666H120.808H120.952H121.097H121.242H121.389H121.536H121.684H121.833H121.983H122.134H122.286H122.439H122.593H122.747H122.903H123.06H123.217H123.376H123.535H123.696H123.857H124.02H124.184H124.348H124.514H124.68H124.848H125.017H125.186H125.357H125.529H125.702H125.876H126.051H126.227H126.404H126.582H126.762H126.942H127.124H127.306H127.49H127.675H127.861H128.048H128.237H128.426H128.617H128.809H129.002H129.196H129.391H129.588H129.785H129.984H130.184H130.386H130.588H130.792H130.997H131.203H131.411H131.619H131.829H132.041H132.253H132.467H132.682H132.898H133.116H133.335H133.555H133.777H133.999H134.224H134.449H134.676H134.904H135.133H135.364H135.596H135.83H136.065H136.301H136.539H136.778H137.018H137.26H137.504H137.748H137.994H138.242H138.491H138.741H138.993H139.246H139.501H139.757H140.015H140.274H140.534H140.796H141.06H141.325H141.591H141.859H142.129H142.4H142.673H142.947H143.222H143.5H143.778H144.059H144.34H144.624H144.909H145.195H145.484H145.773H146.065H146.358H146.652H146.948H147.246H147.545H147.846H148.149H148.453H148.485Z" fill="white" stroke="black" stroke-width="3"/>
<circle cx="75" cy="75" r="22" fill="white" stroke="black" stroke-width="6"/>
</svg>
